G75*
%MOIN*%
%OFA0B0*%
%FSLAX25Y25*%
%IPPOS*%
%LPD*%
%AMOC8*
5,1,8,0,0,1.08239X$1,22.5*
%
%ADD10R,0.19200X0.08000*%
%ADD11R,0.28000X0.17600*%
%ADD12R,0.27200X0.17600*%
%ADD13C,0.05197*%
%ADD14C,0.09921*%
%ADD15C,0.04016*%
%ADD16C,0.03622*%
%ADD17C,0.05260*%
%ADD18C,0.04409*%
%ADD19C,0.06379*%
%ADD20C,0.05960*%
%ADD21C,0.04460*%
D10*
X0887800Y0023389D03*
X1132000Y0022589D03*
D11*
X0880400Y0038589D03*
D12*
X1125600Y0038589D03*
D13*
X1177602Y0031211D03*
X1199255Y0031211D03*
X1303586Y0031211D03*
X1325239Y0031211D03*
X1429570Y0031211D03*
X1451224Y0031211D03*
X1555554Y0031211D03*
X1577208Y0031211D03*
X1681539Y0031211D03*
X1703192Y0031211D03*
X1807523Y0031211D03*
X1829176Y0031211D03*
X1933507Y0031211D03*
X1955161Y0031211D03*
X1955161Y0021211D03*
X1933507Y0021211D03*
X1829176Y0021211D03*
X1807523Y0021211D03*
X1703192Y0021211D03*
X1681539Y0021211D03*
X1577208Y0021211D03*
X1555554Y0021211D03*
X1451224Y0021211D03*
X1429570Y0021211D03*
X1325239Y0021211D03*
X1303586Y0021211D03*
X1199255Y0021211D03*
X1177602Y0021211D03*
X1073271Y0021211D03*
X1051617Y0021211D03*
X0947287Y0021211D03*
X0925633Y0021211D03*
X0821302Y0021211D03*
X0799649Y0021211D03*
X0695318Y0021211D03*
X0673665Y0021211D03*
X0569334Y0021211D03*
X0547680Y0021211D03*
X0443350Y0021211D03*
X0421696Y0021211D03*
X0317365Y0021211D03*
X0295712Y0021211D03*
X0191381Y0021211D03*
X0169728Y0021211D03*
X0065397Y0021211D03*
X0043743Y0021211D03*
X0043743Y0031211D03*
X0065397Y0031211D03*
X0169728Y0031211D03*
X0191381Y0031211D03*
X0295712Y0031211D03*
X0317365Y0031211D03*
X0421696Y0031211D03*
X0443350Y0031211D03*
X0547680Y0031211D03*
X0569334Y0031211D03*
X0673665Y0031211D03*
X0695318Y0031211D03*
X0799649Y0031211D03*
X0821302Y0031211D03*
X0925633Y0031211D03*
X0947287Y0031211D03*
X1051617Y0031211D03*
X1073271Y0031211D03*
D14*
X1062444Y0033692D03*
X0936460Y0033692D03*
X0810476Y0033692D03*
X0684491Y0033692D03*
X0558507Y0033692D03*
X0432523Y0033692D03*
X0306539Y0033692D03*
X0180554Y0033692D03*
X0054570Y0033692D03*
X0054570Y0018731D03*
X0180554Y0018731D03*
X0306539Y0018731D03*
X0432523Y0018731D03*
X0558507Y0018731D03*
X0684491Y0018731D03*
X0810476Y0018731D03*
X0936460Y0018731D03*
X1062444Y0018731D03*
X1188428Y0018731D03*
X1314413Y0018731D03*
X1440397Y0018731D03*
X1566381Y0018731D03*
X1692365Y0018731D03*
X1818350Y0018731D03*
X1944334Y0018731D03*
X1944334Y0033692D03*
X1818350Y0033692D03*
X1692365Y0033692D03*
X1566381Y0033692D03*
X1440397Y0033692D03*
X1314413Y0033692D03*
X1188428Y0033692D03*
D15*
X1206735Y0035857D03*
X1080751Y0035857D03*
X0954767Y0035857D03*
X0828783Y0035857D03*
X0702798Y0035857D03*
X0576814Y0035857D03*
X0450830Y0035857D03*
X0324846Y0035857D03*
X0198861Y0035857D03*
X0072877Y0035857D03*
X0045554Y0055981D03*
X0040436Y0055981D03*
X0035318Y0055981D03*
X0030200Y0055981D03*
X0156184Y0055981D03*
X0161302Y0055981D03*
X0166420Y0055981D03*
X0171539Y0055981D03*
X0282169Y0055981D03*
X0287287Y0055981D03*
X0292405Y0055981D03*
X0297523Y0055981D03*
X0408153Y0055981D03*
X0413271Y0055981D03*
X0418389Y0055981D03*
X0423507Y0055981D03*
X0534137Y0055981D03*
X0539255Y0055981D03*
X0544373Y0055981D03*
X0549491Y0055981D03*
X0660121Y0055981D03*
X0665239Y0055981D03*
X0670357Y0055981D03*
X0675476Y0055981D03*
X0786106Y0055981D03*
X0791224Y0055981D03*
X0796342Y0055981D03*
X0801460Y0055981D03*
X0912090Y0055981D03*
X0917208Y0055981D03*
X0922326Y0055981D03*
X0927444Y0055981D03*
X1038074Y0055981D03*
X1043192Y0055981D03*
X1048310Y0055981D03*
X1053428Y0055981D03*
X1164058Y0055981D03*
X1169176Y0055981D03*
X1174294Y0055981D03*
X1179413Y0055981D03*
X1290043Y0055981D03*
X1295161Y0055981D03*
X1300279Y0055981D03*
X1305397Y0055981D03*
X1416027Y0055981D03*
X1421145Y0055981D03*
X1426263Y0055981D03*
X1431381Y0055981D03*
X1542011Y0055981D03*
X1547129Y0055981D03*
X1552247Y0055981D03*
X1557365Y0055981D03*
X1667995Y0055981D03*
X1673113Y0055981D03*
X1678231Y0055981D03*
X1683350Y0055981D03*
X1793980Y0055981D03*
X1799098Y0055981D03*
X1804216Y0055981D03*
X1809334Y0055981D03*
X1919964Y0055981D03*
X1925082Y0055981D03*
X1930200Y0055981D03*
X1935318Y0055981D03*
X1962641Y0035857D03*
X1836657Y0035857D03*
X1710672Y0035857D03*
X1584688Y0035857D03*
X1458704Y0035857D03*
X1332720Y0035857D03*
D16*
X0036200Y0007925D03*
X0066200Y0007925D03*
X0162184Y0007925D03*
X0192184Y0007925D03*
X0288169Y0007925D03*
X0318169Y0007925D03*
X0414153Y0007925D03*
X0444153Y0007925D03*
X0540137Y0007925D03*
X0570137Y0007925D03*
X0666121Y0007925D03*
X0696121Y0007925D03*
X0792106Y0007925D03*
X0822106Y0007925D03*
X0918090Y0007925D03*
X0948090Y0007925D03*
X1044074Y0007925D03*
X1074074Y0007925D03*
X1170058Y0007925D03*
X1200058Y0007925D03*
X1296043Y0007925D03*
X1326043Y0007925D03*
X1422027Y0007925D03*
X1452027Y0007925D03*
X1548011Y0007925D03*
X1578011Y0007925D03*
X1673995Y0007925D03*
X1703995Y0007925D03*
X1799980Y0007925D03*
X1829980Y0007925D03*
X1925964Y0007925D03*
X1955964Y0007925D03*
X0961070Y0029548D03*
X1052622Y0044725D03*
X1082622Y0044725D03*
X0984051Y0048831D03*
X0966238Y0045525D03*
X0936238Y0045525D03*
X0840254Y0045525D03*
X0810254Y0045525D03*
X0714269Y0045525D03*
X0684269Y0045525D03*
X0588285Y0045525D03*
X0558285Y0045525D03*
X0462301Y0045525D03*
X0432301Y0045525D03*
X0336317Y0045525D03*
X0306317Y0045525D03*
X0210332Y0045525D03*
X0180332Y0045525D03*
X0084348Y0045525D03*
X0054348Y0045525D03*
X1188206Y0045525D03*
X1218206Y0045525D03*
X1314191Y0045525D03*
X1344191Y0045525D03*
X1440175Y0045525D03*
X1470175Y0045525D03*
X1566159Y0045525D03*
X1596159Y0045525D03*
X1692143Y0045525D03*
X1722143Y0045525D03*
X1818128Y0045525D03*
X1848128Y0045525D03*
X1944112Y0045525D03*
X1974112Y0045525D03*
D17*
X1135800Y0043689D03*
X1125800Y0043689D03*
X1115800Y0043689D03*
X0890400Y0043689D03*
X0880400Y0043689D03*
X0870400Y0043689D03*
X0870400Y0033689D03*
X0880400Y0033689D03*
X0890400Y0033689D03*
X1026200Y0028589D03*
X1036200Y0028589D03*
X1115800Y0033689D03*
X1125800Y0033689D03*
X1135800Y0033689D03*
X1036200Y0018589D03*
X1026200Y0018589D03*
X1026200Y0008589D03*
X1036200Y0008589D03*
D18*
X1010858Y0054189D03*
X1004953Y0054189D03*
X0999047Y0054189D03*
X0993142Y0054189D03*
D19*
X0908126Y0035525D03*
X0782142Y0035525D03*
X0656157Y0035525D03*
X0530173Y0035525D03*
X0404189Y0035525D03*
X0278205Y0035525D03*
X0152220Y0035525D03*
X0152220Y0015525D03*
X0278205Y0015525D03*
X0404189Y0015525D03*
X0530173Y0015525D03*
X0656157Y0015525D03*
X0782142Y0015525D03*
X0908126Y0015525D03*
X1083065Y0008700D03*
X1103065Y0008700D03*
X1160094Y0015525D03*
X1286079Y0015525D03*
X1412063Y0015525D03*
X1538047Y0015525D03*
X1664031Y0015525D03*
X1790016Y0015525D03*
X1916000Y0015525D03*
X1916000Y0035525D03*
X1790016Y0035525D03*
X1664031Y0035525D03*
X1538047Y0035525D03*
X1412063Y0035525D03*
X1286079Y0035525D03*
X1160094Y0035525D03*
X0100265Y0010826D03*
X0080265Y0010826D03*
D20*
X0021300Y0013789D03*
X0021300Y0033789D03*
X1996100Y0030989D03*
X1996100Y0050989D03*
D21*
X0972800Y0026389D03*
X0972800Y0016389D03*
M02*
