%
M48
M72
T01C0.01378
T02C0.02362
T03C0.02756
T04C0.03200
T05C0.03937
T06C0.04000
T07C0.04700
T08C0.09843
%
T01
X982400Y7989
X1002193Y5050
X994668Y12589
X997818Y14789
X991718Y15589
X987800Y15389
X1047200Y16189
X1002000Y17589
X1012800Y18589
X1008000Y21389
X986000Y21389
X992800Y23989
X1012800Y24589
X1007000Y25589
X986000Y27789
X1004600Y28989
X1009200Y30989
X988800Y31789
X994816Y34005
X1013077Y33906
X991600Y36189
X1014800Y37256
X1006600Y38789
X1010400Y40189
X1015800Y44989
X1030400Y46589
T02
X36200Y7925
X66200Y7925
X162184Y7925
X192184Y7925
X288169Y7925
X318169Y7925
X414153Y7925
X444153Y7925
X540137Y7925
X570137Y7925
X666121Y7925
X696121Y7925
X792106Y7925
X822106Y7925
X918090Y7925
X948090Y7925
X1044074Y7925
X1074074Y7925
X1170058Y7925
X1200058Y7925
X1296043Y7925
X1326043Y7925
X1422027Y7925
X1452027Y7925
X1548011Y7925
X1578011Y7925
X1673995Y7925
X1703995Y7925
X1799980Y7925
X1829980Y7925
X1925964Y7925
X1955964Y7925
X961070Y29548
X1052622Y44725
X1082622Y44725
X984051Y48831
X966238Y45525
X936238Y45525
X840254Y45525
X810254Y45525
X714269Y45525
X684269Y45525
X588285Y45525
X558285Y45525
X462301Y45525
X432301Y45525
X336317Y45525
X306317Y45525
X210332Y45525
X180332Y45525
X84348Y45525
X54348Y45525
X45554Y55981
X40436Y55981
X35318Y55981
X30200Y55981
X156184Y55981
X161302Y55981
X166420Y55981
X171539Y55981
X282169Y55981
X287287Y55981
X292405Y55981
X297523Y55981
X408153Y55981
X413271Y55981
X418389Y55981
X423507Y55981
X534137Y55981
X539255Y55981
X544373Y55981
X549491Y55981
X660121Y55981
X665239Y55981
X670357Y55981
X675476Y55981
X786106Y55981
X791224Y55981
X796342Y55981
X801460Y55981
X912090Y55981
X917208Y55981
X922326Y55981
X927444Y55981
X1038074Y55981
X1043192Y55981
X1048310Y55981
X1053428Y55981
X1164058Y55981
X1169176Y55981
X1174294Y55981
X1179413Y55981
X1290043Y55981
X1295161Y55981
X1300279Y55981
X1305397Y55981
X1416027Y55981
X1421145Y55981
X1426263Y55981
X1431381Y55981
X1542011Y55981
X1547129Y55981
X1552247Y55981
X1557365Y55981
X1667995Y55981
X1673113Y55981
X1678231Y55981
X1683350Y55981
X1793980Y55981
X1799098Y55981
X1804216Y55981
X1809334Y55981
X1919964Y55981
X1925082Y55981
X1930200Y55981
X1935318Y55981
X1944112Y45525
X1974112Y45525
X1848128Y45525
X1818128Y45525
X1722143Y45525
X1692143Y45525
X1596159Y45525
X1566159Y45525
X1470175Y45525
X1440175Y45525
X1344191Y45525
X1314191Y45525
X1218206Y45525
X1188206Y45525
T03
X1010858Y54189
X1004953Y54189
X999047Y54189
X993142Y54189
T04
X908126Y35525
X782142Y35525
X656157Y35525
X530173Y35525
X404189Y35525
X278205Y35525
X152220Y35525
X152220Y15525
X278205Y15525
X404189Y15525
X530173Y15525
X656157Y15525
X782142Y15525
X908126Y15525
X972800Y16389
X1160094Y15525
X1286079Y15525
X1412063Y15525
X1538047Y15525
X1664031Y15525
X1790016Y15525
X1916000Y15525
X1916000Y35525
X1790016Y35525
X1664031Y35525
X1538047Y35525
X1412063Y35525
X1286079Y35525
X1160094Y35525
X972800Y26389
X1083065Y8700
X1103065Y8700
X100265Y10826
X80265Y10826
T05
X65397Y21211
X43743Y21211
X169728Y21211
X191381Y21211
X295712Y21211
X317365Y21211
X421696Y21211
X443350Y21211
X547680Y21211
X569334Y21211
X673665Y21211
X695318Y21211
X799649Y21211
X821302Y21211
X925633Y21211
X947287Y21211
X1051617Y21211
X1073271Y21211
X1177602Y21211
X1199255Y21211
X1303586Y21211
X1325239Y21211
X1429570Y21211
X1451224Y21211
X1555554Y21211
X1577208Y21211
X1681539Y21211
X1703192Y21211
X1807523Y21211
X1829176Y21211
X1933507Y21211
X1955161Y21211
X1955161Y31211
X1933507Y31211
X1829176Y31211
X1807523Y31211
X1703192Y31211
X1681539Y31211
X1577208Y31211
X1555554Y31211
X1451224Y31211
X1429570Y31211
X1325239Y31211
X1303586Y31211
X1199255Y31211
X1177602Y31211
X1073271Y31211
X1051617Y31211
X947287Y31211
X925633Y31211
X821302Y31211
X799649Y31211
X695318Y31211
X673665Y31211
X569334Y31211
X547680Y31211
X443350Y31211
X421696Y31211
X317365Y31211
X295712Y31211
X191381Y31211
X169728Y31211
X65397Y31211
X43743Y31211
X72877Y35857
X198861Y35857
X324846Y35857
X450830Y35857
X576814Y35857
X702798Y35857
X828783Y35857
X954767Y35857
X1080751Y35857
X1206735Y35857
X1332720Y35857
X1458704Y35857
X1584688Y35857
X1710672Y35857
X1836657Y35857
X1962641Y35857
T06
X1135800Y33689
X1125800Y33689
X1115800Y33689
X1036200Y28589
X1026200Y28589
X890400Y33689
X880400Y33689
X870400Y33689
X870400Y43689
X880400Y43689
X890400Y43689
X1115800Y43689
X1125800Y43689
X1135800Y43689
X1036200Y18589
X1026200Y18589
X1026200Y8589
X1036200Y8589
T07
X1996100Y30989
X1996100Y50989
X21300Y33789
X21300Y13789
T08
X54570Y18731
X180554Y18731
X306539Y18731
X432523Y18731
X558507Y18731
X684491Y18731
X810476Y18731
X936460Y18731
X1062444Y18731
X1188428Y18731
X1314413Y18731
X1440397Y18731
X1566381Y18731
X1692365Y18731
X1818350Y18731
X1944334Y18731
X1944334Y33692
X1818350Y33692
X1692365Y33692
X1566381Y33692
X1440397Y33692
X1314413Y33692
X1188428Y33692
X1062444Y33692
X936460Y33692
X810476Y33692
X684491Y33692
X558507Y33692
X432523Y33692
X306539Y33692
X180554Y33692
X54570Y33692
M30
